# xmcd CD database file
#
# Track frame offsets:
#	150
#	21680
#	45898
#	78438
#	101192
#	135842
#	158928
#	174395
#	198061
#	224507
#	247491
#	277224
#	289229
#	307348
#
# Disc length: 4275 seconds
#
# Revision: 0
# Processed by: cddbd v1.4PL0 Copyright (c) Steve Scherf et al.
# Submitted via: CDex 1.40Beta9
#
DISCID=d810b10e
DTITLE=Good Whiskey Blues - From Los Angeles (vol. 7)
DYEAR=1900
DGENRE=Blues
TTITLE0=Janes Armstrong - The Devil's Livin' There
TTITLE1=Blue By Nature - The Blues Is In My Way
TTITLE2=Barry Levenson - Cobra Days - Blue Tears
TTITLE3=Rich Harper Blues Band - She's On Her Way Up
TTITLE4=Stan Webb's Chicken Schack - The Trill Has Gone
TTITLE5=Blue By Nature - Love Me All Night
TTITLE6=Stan Ruffo and The Instigators - Take Away My Breath
TTITLE7=Red Hot Blues - Haunted By My Past
TTITLE8=Barry Levenson - Steel Life
TTITLE9=King Johnson - Where My Baby Might Be
TTITLE10=Chris Hicks - Blues Got Me Down
TTITLE11=Wayne "Bear" Sauls - Special Kind Of Mambo
TTITLE12=Diane Durret - Side Squeeze
TTITLE13=Doug "Little Brother" Jones - The Last Time
EXTD=ID3G: 0
EXTT0=
EXTT1=
EXTT2=
EXTT3=
EXTT4=
EXTT5=
EXTT6=
EXTT7=
EXTT8=
EXTT9=
EXTT10=
EXTT11=
EXTT12=
EXTT13=
PLAYORDER=
